<svg xmlns="http://www.w3.org/2000/svg" width="25" height="25" viewBox="0 0 25 25">
  <path id="arrow_drop_down_circle_FILL0_wght400_GRAD0_opsz48" d="M16.5,20.062l4.562-4.594H11.906ZM16.5,29a12.1,12.1,0,0,1-4.844-.984,12.594,12.594,0,0,1-6.672-6.672,12.486,12.486,0,0,1,0-9.719A12.492,12.492,0,0,1,7.672,7.656a12.814,12.814,0,0,1,3.984-2.672,12.486,12.486,0,0,1,9.719,0,12.48,12.48,0,0,1,6.641,6.641,12.486,12.486,0,0,1,0,9.719,12.814,12.814,0,0,1-2.672,3.984,12.492,12.492,0,0,1-3.969,2.687A12.172,12.172,0,0,1,16.5,29Zm0-1.875a10.224,10.224,0,0,0,7.531-3.109A10.265,10.265,0,0,0,27.125,16.5a10.25,10.25,0,0,0-3.094-7.531A10.25,10.25,0,0,0,16.5,5.875,10.265,10.265,0,0,0,8.984,8.969,10.224,10.224,0,0,0,5.875,16.5a10.239,10.239,0,0,0,3.109,7.516A10.239,10.239,0,0,0,16.5,27.125ZM16.5,16.5Z" transform="translate(-4 -4)" fill="#56555a"/>
</svg>
