<svg xmlns="http://www.w3.org/2000/svg" width="55.563" height="59.747" viewBox="0 0 55.563 59.747">
  <path id="madani_logo" d="M44.1,59.747H40.04L30.03,53H26.113L16.248,59.03h-5.8L0,51.561v-31.6L28.29,0,55.563,18.527V52.279L44.1,59.747ZM40.911,16.373v28.15l-6.674,4.022,5.8,4.883h3.772l6.238-3.734V21.688Zm-26.138,0-9.14,5.314V49.693l6.238,3.734h3.772l5.8-4.883-6.674-4.022Zm5.392,8.186h0V42.225l7.616,4.6,7.472-4.6V24.559l-7.472,4.6ZM27.781,6.751l-9.792,7.755,9.792,7.756,10.083-7.756L27.781,6.751Z" fill="#fff"/>
</svg>
